# This file uses meters as units for non-parametric coordinates.

mtllib Heater_ENV.mtl
g default
v -11.473462 -0.282354 33.285114
v 11.473462 -0.282354 33.285114
v -11.473462 66.837601 33.285114
v 11.473462 66.837601 33.285114
v -11.473462 66.837601 -33.285114
v 11.473462 66.837601 -33.285114
v -11.473462 -0.282354 -33.285114
v 11.473462 -0.282354 -33.285114
v -11.473462 66.837601 0.000000
v 11.473462 66.837601 0.000000
v 11.473462 -0.282354 0.000000
v -11.473462 -0.282354 0.000000
v -11.473462 66.837601 16.642557
v 11.473462 66.837601 16.642557
v 11.473462 -0.282354 16.642557
v -11.473462 -0.282354 16.642557
v -11.473462 -0.282354 -16.642557
v 11.473462 -0.282354 -16.642557
v 11.473462 66.837601 -16.642557
v -11.473462 66.837601 -16.642557
v 9.216368 6.319668 8.321279
v 9.216368 60.235577 8.321279
v -9.216368 60.235577 8.321279
v -9.216368 6.319668 8.321279
v -9.216368 60.235577 24.963837
v 9.216368 60.235577 24.963837
v 9.216368 6.319668 24.963837
v -9.216368 6.319668 24.963837
v -9.216368 60.235577 -8.321279
v 9.216368 60.235577 -8.321279
v 9.216368 6.319668 -8.321279
v -9.216368 6.319668 -8.321279
v -9.216368 6.319668 -24.963837
v 9.216368 6.319668 -24.963837
v 9.216368 60.235577 -24.963837
v -9.216368 60.235577 -24.963837
v -11.473462 -0.282354 35.553257
v 11.473462 -0.282354 35.553257
v 11.473462 66.837601 35.553257
v -11.473462 66.837601 35.553257
v -11.473462 66.837601 -35.553257
v 11.473462 66.837601 -35.553257
v 11.473462 -0.282354 -35.553257
v -11.473462 -0.282354 -35.553257
vt 0.489760 0.856103
vt 0.649115 0.856103
vt 0.649115 0.861533
vt 0.489760 0.861533
vt 0.505434 0.836184
vt 0.633441 0.836184
vt 0.489760 0.816265
vt 0.649115 0.816265
vt 0.505434 0.796345
vt 0.633441 0.796345
vt 0.489760 0.776426
vt 0.649115 0.776426
vt 0.505434 0.756506
vt 0.633441 0.756506
vt 0.489760 0.736587
vt 0.649115 0.736587
vt 0.505434 0.716667
vt 0.633441 0.716667
vt 0.489760 0.696748
vt 0.649115 0.696748
vt 0.489760 0.691319
vt 0.649115 0.691319
vt 0.485862 0.696748
vt 0.326507 0.696748
vt 0.326507 0.691319
vt 0.485862 0.691319
vt 0.470187 0.716668
vt 0.342181 0.716668
vt 0.485862 0.736587
vt 0.326507 0.736587
vt 0.470187 0.756506
vt 0.342181 0.756506
vt 0.485862 0.776426
vt 0.326507 0.776426
vt 0.470187 0.796345
vt 0.342181 0.796345
vt 0.485862 0.816265
vt 0.326507 0.816265
vt 0.470187 0.836184
vt 0.342181 0.836184
vt 0.326507 0.856103
vt 0.485862 0.856103
vt 0.485862 0.861533
vt 0.326507 0.861533
vt 0.000000 0.856103
vt 0.159355 0.856103
vt 0.159355 0.861533
vt 0.000000 0.861533
vt 0.015675 0.836184
vt 0.143681 0.836184
vt 0.000000 0.816265
vt 0.159355 0.816265
vt 0.015675 0.796345
vt 0.143681 0.796345
vt 0.000000 0.776426
vt 0.159355 0.776426
vt 0.015675 0.756506
vt 0.143681 0.756506
vt 0.000000 0.736587
vt 0.159355 0.736587
vt 0.015675 0.716668
vt 0.143681 0.716668
vt 0.000000 0.696748
vt 0.159355 0.696748
vt 0.000000 0.691319
vt 0.159355 0.691319
vt 0.322609 0.696748
vt 0.163253 0.696748
vt 0.163253 0.691319
vt 0.322609 0.691319
vt 0.306934 0.716668
vt 0.178928 0.716668
vt 0.322609 0.736587
vt 0.163253 0.736587
vt 0.306934 0.756506
vt 0.178928 0.756506
vt 0.322609 0.776426
vt 0.163253 0.776426
vt 0.306934 0.796345
vt 0.178928 0.796345
vt 0.322609 0.816265
vt 0.163253 0.816265
vt 0.306934 0.836184
vt 0.178928 0.836184
vt 0.322609 0.856103
vt 0.163253 0.856103
vt 0.322609 0.861533
vt 0.163253 0.861533
vt 0.816267 0.284684
vt 0.816267 0.142342
vt 0.958609 0.142342
vt 0.958609 0.284684
vt 0.816267 0.142342
vt 0.816267 0.000000
vt 0.958609 0.000000
vt 0.958609 0.142342
vn 0.000000 0.000000 1.000000
vn 0.000000 0.000000 1.000000
vn 0.000000 0.000000 1.000000
vn 0.000000 0.000000 1.000000
vn 0.000000 1.000000 0.000000
vn 0.000000 1.000000 0.000000
vn 0.000000 1.000000 0.000000
vn 0.000000 1.000000 0.000000
vn 0.000000 0.000000 -1.000000
vn 0.000000 0.000000 -1.000000
vn 0.000000 0.000000 -1.000000
vn 0.000000 0.000000 -1.000000
vn 0.000000 -1.000000 0.000000
vn 0.000000 -1.000000 0.000000
vn 0.000000 -1.000000 0.000000
vn 0.000000 -1.000000 0.000000
vn 1.000000 0.000000 0.000000
vn 1.000000 0.000000 0.000000
vn 1.000000 0.000000 0.000000
vn 1.000000 0.000000 -0.000000
vn -1.000000 0.000000 -0.000000
vn -1.000000 0.000000 0.000000
vn -1.000000 0.000000 0.000000
vn -1.000000 0.000000 0.000000
vn 0.000000 1.000000 0.000000
vn 0.000000 1.000000 0.000000
vn 0.000000 1.000000 0.000000
vn 0.000000 1.000000 0.000000
vn 1.000000 0.000000 0.000000
vn 1.000000 0.000000 0.000000
vn 1.000000 0.000000 -0.000000
vn 1.000000 0.000000 -0.000000
vn 0.000000 -1.000000 0.000000
vn 0.000000 -1.000000 0.000000
vn 0.000000 -1.000000 0.000000
vn 0.000000 -1.000000 0.000000
vn -1.000000 0.000000 -0.000000
vn -1.000000 0.000000 -0.000000
vn -1.000000 0.000000 0.000000
vn -1.000000 0.000000 0.000000
vn 0.000000 1.000000 0.000000
vn 0.000000 1.000000 0.000000
vn 1.000000 0.000000 0.000000
vn 1.000000 0.000000 0.000000
vn 0.000000 -1.000000 0.000000
vn 0.000000 -1.000000 0.000000
vn -1.000000 0.000000 0.000000
vn -1.000000 0.000000 0.000000
vn 0.000000 -1.000000 0.000000
vn 0.000000 -1.000000 0.000000
vn 1.000000 0.000000 -0.000000
vn 1.000000 0.000000 -0.000000
vn 0.000000 1.000000 -0.000000
vn 0.000000 1.000000 -0.000000
vn -1.000000 0.000000 -0.000000
vn -1.000000 0.000000 -0.000000
vn 1.000000 0.000000 0.000000
vn 1.000000 0.000000 0.000000
vn 0.000000 1.000000 0.000000
vn 0.000000 1.000000 0.000000
vn -1.000000 0.000000 0.000000
vn -1.000000 0.000000 0.000000
vn 0.000000 -1.000000 0.000000
vn 0.000000 -1.000000 0.000000
vn 0.000000 0.783388 -0.621533
vn 0.000000 0.783388 -0.621533
vn 0.965126 0.000000 -0.261784
vn 0.965126 0.000000 -0.261784
vn 0.000000 -0.783388 -0.621533
vn 0.000000 -0.783388 -0.621533
vn -0.965126 0.000000 -0.261784
vn -0.965126 0.000000 -0.261784
vn 0.000000 -0.783388 0.621533
vn 0.000000 -0.783388 0.621533
vn 0.965126 0.000000 0.261784
vn 0.965126 0.000000 0.261784
vn 0.000000 0.783388 0.621533
vn 0.000000 0.783388 0.621533
vn -0.965126 0.000000 0.261784
vn -0.965126 0.000000 0.261784
vn 0.000000 -1.000000 0.000000
vn 0.000000 -1.000000 0.000000
vn 0.000000 -1.000000 0.000000
vn 0.000000 -1.000000 0.000000
vn 1.000000 0.000000 0.000000
vn 1.000000 0.000000 0.000000
vn 1.000000 0.000000 0.000000
vn 1.000000 0.000000 0.000000
vn 0.000000 1.000000 0.000000
vn 0.000000 1.000000 0.000000
vn 0.000000 1.000000 0.000000
vn 0.000000 1.000000 0.000000
vn -1.000000 0.000000 0.000000
vn -1.000000 0.000000 0.000000
vn -1.000000 0.000000 0.000000
vn -1.000000 0.000000 0.000000
vn 0.000000 1.000000 0.000000
vn 0.000000 1.000000 0.000000
vn 0.000000 1.000000 0.000000
vn 0.000000 1.000000 0.000000
vn 1.000000 0.000000 0.000000
vn 1.000000 0.000000 0.000000
vn 1.000000 0.000000 0.000000
vn 1.000000 0.000000 0.000000
vn 0.000000 -1.000000 0.000000
vn 0.000000 -1.000000 0.000000
vn 0.000000 -1.000000 0.000000
vn 0.000000 -1.000000 0.000000
vn -1.000000 0.000000 0.000000
vn -1.000000 0.000000 0.000000
vn -1.000000 0.000000 0.000000
vn -1.000000 0.000000 0.000000
s off
g pCube1 grp_Radiator
usemtl initialShadingGroup
f 37/89/1 38/90/2 39/91/3 40/92/4
s 1
f 29/80/5 30/79/6 19/81/7 20/82/8
s off
f 41/93/9 42/94/10 43/95/11 44/96/12
s 2
f 17/59/13 18/60/14 31/58/15 32/57/16
s 3
f 30/14/17 31/13/18 18/15/19 19/16/20
s 4
f 20/37/21 17/38/22 32/36/23 29/35/24
s 1
f 13/74/25 14/73/26 22/75/27 23/76/28
s 3
f 14/8/29 15/7/30 21/9/31 22/10/32
s 2
f 24/53/33 21/54/34 15/52/35 16/51/36
s 4
f 23/31/37 24/32/38 16/30/39 13/29/40
s 1
f 25/72/41 26/71/42 14/73/26 13/74/25
s 3
f 26/6/43 27/5/44 15/7/30 14/8/29
s 2
f 16/51/36 15/52/35 27/50/45 28/49/46
s 4
f 13/29/40 16/30/39 28/28/47 25/27/48
s 2
f 33/61/49 34/62/50 18/60/14 17/59/13
s 3
f 19/16/20 18/15/19 34/17/51 35/18/52
s 1
f 20/82/8 19/81/7 35/83/53 36/84/54
s 4
f 36/39/55 33/40/56 17/38/22 20/37/21
s 3
f 22/10/32 21/9/31 11/11/57 10/12/58
s 1
f 23/76/28 22/75/27 10/77/59 9/78/60
s 4
f 9/33/61 12/34/62 24/32/38 23/31/37
s 2
f 12/55/63 11/56/64 21/54/34 24/53/33
s 1
f 3/68/65 4/67/66 26/71/42 25/72/41
s 3
f 2/1/67 27/5/44 26/6/43 4/2/68
s 2
f 28/49/46 27/50/45 2/46/69 1/45/70
s 4
f 25/27/48 28/28/47 1/24/71 3/23/72
s 1
f 9/78/60 10/77/59 30/79/6 29/80/5
s 3
f 10/12/58 11/11/57 31/13/18 30/14/17
s 2
f 32/57/16 31/58/15 11/56/64 12/55/63
s 4
f 29/35/24 32/36/23 12/34/62 9/33/61
s 2
f 7/63/73 8/64/74 34/62/50 33/61/49
s 3
f 35/18/52 34/17/51 8/19/75 6/20/76
s 1
f 36/84/54 35/83/53 6/85/77 5/86/78
s 4
f 7/41/79 33/40/56 36/39/55 5/42/80
s off
f 1/45/81 2/46/82 38/47/83 37/48/84
f 2/1/85 4/2/86 39/3/87 38/4/88
f 4/67/89 3/68/90 40/69/91 39/70/92
f 3/23/93 1/24/94 37/25/95 40/26/96
f 5/86/97 6/85/98 42/87/99 41/88/100
f 6/20/101 8/19/102 43/21/103 42/22/104
f 8/64/105 7/63/106 44/65/107 43/66/108
f 7/41/109 5/42/110 41/43/111 44/44/112
g default
v -2.461850 1.710238 31.567385
v 2.461850 1.710238 31.567385
v -2.461850 64.845009 31.567385
v 2.461850 64.845009 31.567385
v -2.461850 64.845009 -31.567385
v 2.461850 64.845009 -31.567385
v -2.461850 1.710238 -31.567385
v 2.461850 1.710238 -31.567385
v 2.461850 3.950008 -29.327614
v 2.461850 3.950008 29.327614
v 2.461850 62.605236 -29.327614
v 2.461850 62.605236 29.327614
v -2.461850 3.950008 -29.327614
v -2.461850 3.950008 29.327614
v -2.461850 62.605236 29.327614
v -2.461850 62.605236 -29.327614
vt 0.502004 0.427013
vt 0.502004 0.284668
vt 0.507054 0.289718
vt 0.507054 0.421963
vt 0.135652 0.283700
vt 0.135652 0.426044
vt 0.130603 0.420994
vt 0.130603 0.288750
vt 0.122440 0.427010
vt 0.122440 0.284668
vt 0.127490 0.289718
vt 0.127490 0.421960
vt 0.527460 0.142314
vt 0.527460 0.284656
vt 0.522411 0.279607
vt 0.522411 0.147364
vt 0.795860 0.952831
vt 0.795860 0.810489
vt 0.938202 0.810489
vt 0.938202 0.952831
vt 0.653013 0.810489
vt 0.795355 0.810489
vt 0.795355 0.952831
vt 0.653013 0.952831
vt 0.000000 0.142342
vt 0.132243 0.142342
vt 0.132243 0.284684
vt 0.000000 0.284684
vt 0.387727 0.142342
vt 0.519969 0.142342
vt 0.519969 0.284684
vt 0.387727 0.284684
vn 0.000000 1.000000 0.000000
vn 0.000000 1.000000 0.000000
vn 0.000000 1.000000 0.000000
vn 0.000000 1.000000 0.000000
vn 0.000000 -1.000000 0.000000
vn 0.000000 -1.000000 0.000000
vn 0.000000 -1.000000 0.000000
vn 0.000000 -1.000000 0.000000
vn 1.000000 -0.000000 0.000000
vn 1.000000 -0.000000 0.000000
vn 1.000000 -0.000000 0.000000
vn 1.000000 -0.000000 0.000000
vn 1.000000 0.000000 0.000000
vn 1.000000 0.000000 0.000000
vn 1.000000 0.000000 0.000000
vn 1.000000 0.000000 0.000000
vn -1.000000 -0.000000 0.000000
vn -1.000000 -0.000000 0.000000
vn -1.000000 -0.000000 0.000000
vn -1.000000 -0.000000 0.000000
vn -1.000000 0.000000 0.000000
vn -1.000000 0.000000 0.000000
vn -1.000000 0.000000 0.000000
vn -1.000000 0.000000 0.000000
vn 0.000000 1.000000 0.000000
vn 0.000000 1.000000 0.000000
vn 0.000000 1.000000 0.000000
vn 0.000000 1.000000 0.000000
vn 0.000000 -1.000000 0.000000
vn 0.000000 -1.000000 0.000000
vn 0.000000 -1.000000 0.000000
vn 0.000000 -1.000000 0.000000
s off
g grp_Radiator pCube2
usemtl initialShadingGroup
f 47/113/113 48/114/114 50/115/115 49/116/116
f 51/117/117 52/118/118 46/119/119 45/120/120
f 46/97/121 52/98/122 53/99/123 54/100/124
f 50/101/125 48/102/126 56/103/127 55/104/128
f 51/105/129 45/106/130 58/107/131 57/108/132
f 47/109/133 49/110/134 60/111/135 59/112/136
f 54/121/137 53/122/138 57/123/139 58/124/140
f 55/125/141 56/126/142 59/127/143 60/128/144
g default
v -2.479646 9.371574 -33.305748
v 2.479646 9.371574 -33.305748
v -2.479646 14.330869 -33.305748
v 2.479646 14.330869 -33.305748
v -2.479646 14.330869 -38.265038
v 2.479646 14.330869 -38.265038
v -2.479646 9.371574 -38.265038
v 2.479646 9.371574 -38.265038
v -2.479646 14.330869 -42.417007
v 2.479646 14.330869 -42.417007
v 2.479646 9.371574 -42.417007
v -2.479646 9.371574 -42.417007
v -21.606342 14.330869 -38.265038
v -21.606342 9.371574 -38.265038
v -21.606342 14.330869 -42.417007
v -21.606342 9.371574 -42.417007
v -1.481804 14.330869 -39.100437
v 1.481804 14.330869 -39.100437
v 1.481804 14.330869 -41.581604
v -1.481804 14.330869 -41.581604
v -1.481804 16.616474 -39.100437
v 1.481804 16.616474 -39.100437
v 1.481804 16.616474 -41.581604
v -1.481804 16.616474 -41.581604
v -2.276633 16.616472 -38.434994
v 2.276633 16.616472 -38.434994
v 2.276633 16.616472 -42.247044
v -2.276633 16.616472 -42.247044
v -2.276633 20.537668 -38.434994
v 2.276633 20.537668 -38.434994
v 2.276633 20.537668 -42.247044
v -2.276633 20.537668 -42.247044
v -0.690615 20.537668 -39.762821
v 0.690615 20.537668 -39.762821
v 0.690615 20.537668 -40.919205
v -0.690615 20.537668 -40.919205
v -0.690615 26.820518 -39.762821
v 0.690615 26.820518 -39.762821
v 0.690615 26.820518 -40.919205
v -0.690615 26.820518 -40.919205
v -1.393829 9.371574 -39.174091
v 1.393829 9.371574 -39.174091
v -1.393829 9.371574 -41.507946
v 1.393829 9.371574 -41.507946
v -1.393829 4.547293 -39.174091
v 1.393829 4.547293 -39.174091
v -1.393829 4.547293 -41.507946
v 1.393829 4.547293 -41.507946
vt 0.673420 0.810489
vt 0.673420 0.668147
vt 0.815762 0.668147
vt 0.815762 0.810489
vt 0.673420 0.548976
vt 0.815762 0.548976
vt 0.816267 0.427027
vt 0.958609 0.427027
vt 0.958609 0.569369
vt 0.816267 0.569369
vt 0.119170 0.284684
vt 0.119170 0.427026
vt 0.000000 0.427026
vt 0.000000 0.284684
vt 0.371401 0.932748
vt 0.371401 0.861533
vt 0.437003 0.861533
vt 0.437003 0.932748
vt 0.408133 0.509401
vt 0.408133 0.438186
vt 0.473735 0.438186
vt 0.473735 0.509401
vt 0.816267 0.569369
vt 0.925681 0.569369
vt 0.925681 0.681915
vt 0.816267 0.681915
vt 0.387727 0.546061
vt 0.497140 0.546061
vt 0.497140 0.658608
vt 0.387727 0.658608
vt 0.959113 0.360662
vt 0.992304 0.360662
vt 0.992304 0.540993
vt 0.959113 0.540993
vt 0.959113 0.540993
vt 0.992304 0.540993
vt 0.992304 0.721324
vt 0.959113 0.721324
vt 0.299623 1.000000
vt 0.232636 1.000000
vt 0.232636 0.861533
vt 0.299623 0.861533
vt 0.230240 1.000000
vt 0.163253 1.000000
vt 0.163253 0.861533
vt 0.230240 0.861533
vt 0.000000 0.142342
vt 0.000000 0.000000
vt 0.142342 0.000000
vt 0.142342 0.142342
vt 0.166320 0.028640
vt 0.166320 0.113702
vt 0.261512 0.000000
vt 0.237535 0.028640
vt 0.261512 0.142342
vt 0.237535 0.113702
vt 0.261512 0.691319
vt 0.142342 0.691319
vt 0.384457 0.142342
vt 0.384457 0.000000
vt 0.526799 0.000000
vt 0.526799 0.142342
vt 0.358365 0.111177
vt 0.358365 0.031165
vt 0.265287 0.142342
vt 0.291379 0.111177
vt 0.265287 0.000000
vt 0.291379 0.031165
vt 0.384457 0.691319
vt 0.265287 0.691319
vt 0.167335 0.068284
vt 0.167335 0.028640
vt 0.200525 0.028640
vt 0.200525 0.068284
vt 0.369005 0.861533
vt 0.369005 0.941545
vt 0.302019 0.941545
vt 0.302019 0.861533
vt 0.478041 0.523248
vt 0.478041 0.438186
vt 0.497140 0.415373
vt 0.497140 0.546061
vt 0.406826 0.438186
vt 0.387727 0.415373
vt 0.406826 0.523248
vt 0.387727 0.546061
vt 0.000000 0.688403
vt 0.000000 0.557715
vt 0.038111 0.603237
vt 0.038111 0.642881
vt 0.109414 0.557715
vt 0.071302 0.603237
vt 0.109414 0.688403
vt 0.071302 0.642881
vt 0.816267 0.284684
vt 0.958609 0.284684
vt 0.958609 0.427027
vt 0.816267 0.427027
vt 0.530573 0.142342
vt 0.530573 0.000000
vt 0.672916 0.000000
vt 0.672916 0.142342
vt 0.672916 0.691319
vt 0.530573 0.691319
vt 0.673420 0.000000
vt 0.815762 0.000000
vt 0.815762 0.548976
vt 0.673420 0.548976
vt 0.885649 0.766977
vt 0.885649 0.681915
vt 0.951251 0.681915
vt 0.951251 0.766977
vt 0.881868 0.681915
vt 0.881868 0.766977
vt 0.816267 0.766977
vt 0.816267 0.681915
vt 0.000000 0.557715
vt 0.000000 0.427026
vt 0.112547 0.427026
vt 0.112547 0.557715
vt 0.500273 0.284684
vt 0.500273 0.415373
vt 0.387727 0.415373
vt 0.387727 0.284684
vt 0.959113 0.000000
vt 0.998758 0.000000
vt 0.998758 0.180331
vt 0.959113 0.180331
vt 0.998758 0.360662
vt 0.959113 0.360662
vt 0.959113 0.180331
vt 0.998758 0.180331
vt 0.161638 1.000000
vt 0.081627 1.000000
vt 0.081627 0.861533
vt 0.161638 0.861533
vt 0.000000 0.861533
vt 0.080012 0.861533
vt 0.080012 1.000000
vt 0.000000 1.000000
vn 0.000000 0.000000 1.000000
vn 0.000000 0.000000 1.000000
vn 0.000000 0.000000 1.000000
vn 0.000000 0.000000 1.000000
vn 0.000000 1.000000 0.000000
vn 0.000000 1.000000 0.000000
vn 0.000000 1.000000 0.000000
vn 0.000000 1.000000 0.000000
vn 0.000000 0.000000 -1.000000
vn 0.000000 0.000000 -1.000000
vn 0.000000 0.000000 -1.000000
vn 0.000000 0.000000 -1.000000
vn 0.000000 -1.000000 0.000000
vn 0.000000 -1.000000 0.000000
vn 0.000000 -1.000000 0.000000
vn 0.000000 -1.000000 0.000000
vn 1.000000 0.000000 0.000000
vn 1.000000 0.000000 0.000000
vn 1.000000 0.000000 0.000000
vn 1.000000 0.000000 0.000000
vn -1.000000 0.000000 0.000000
vn -1.000000 0.000000 0.000000
vn -1.000000 0.000000 0.000000
vn -1.000000 0.000000 0.000000
vn 0.000000 1.000000 0.000000
vn 0.000000 1.000000 0.000000
vn 0.000000 1.000000 0.000000
vn 0.000000 1.000000 0.000000
vn 1.000000 0.000000 0.000000
vn 1.000000 0.000000 0.000000
vn 1.000000 0.000000 0.000000
vn 1.000000 0.000000 0.000000
vn 0.000000 -1.000000 0.000000
vn 0.000000 -1.000000 0.000000
vn 0.000000 -1.000000 0.000000
vn 0.000000 -1.000000 0.000000
vn -1.000000 0.000000 0.000000
vn -1.000000 0.000000 0.000000
vn -1.000000 0.000000 0.000000
vn -1.000000 0.000000 0.000000
vn 0.000000 0.000000 1.000000
vn 0.000000 0.000000 1.000000
vn 0.000000 0.000000 1.000000
vn 0.000000 0.000000 1.000000
vn 0.000000 1.000000 0.000000
vn 0.000000 1.000000 0.000000
vn 0.000000 1.000000 0.000000
vn 0.000000 1.000000 0.000000
vn 0.000000 0.000000 -1.000000
vn 0.000000 0.000000 -1.000000
vn 0.000000 0.000000 -1.000000
vn 0.000000 0.000000 -1.000000
vn 0.000000 -1.000000 0.000000
vn 0.000000 -1.000000 0.000000
vn 0.000000 -1.000000 0.000000
vn 0.000000 -1.000000 0.000000
vn 0.000000 1.000000 -0.000000
vn 0.000000 1.000000 -0.000000
vn 0.000000 1.000000 -0.000000
vn 0.000000 1.000000 -0.000000
vn 0.000000 1.000000 0.000000
vn 0.000000 1.000000 0.000000
vn 0.000000 1.000000 0.000000
vn 0.000000 1.000000 0.000000
vn 0.000000 1.000000 0.000000
vn 0.000000 1.000000 0.000000
vn 0.000000 1.000000 0.000000
vn 0.000000 1.000000 0.000000
vn 0.000000 1.000000 0.000000
vn 0.000000 1.000000 0.000000
vn 0.000000 1.000000 0.000000
vn 0.000000 1.000000 0.000000
vn 0.000000 0.000000 1.000000
vn 0.000000 0.000000 1.000000
vn 0.000000 0.000000 1.000000
vn 0.000000 0.000000 1.000000
vn 1.000000 0.000000 0.000000
vn 1.000000 0.000000 0.000000
vn 1.000000 0.000000 0.000000
vn 1.000000 0.000000 0.000000
vn 0.000000 0.000000 -1.000000
vn 0.000000 0.000000 -1.000000
vn 0.000000 0.000000 -1.000000
vn 0.000000 0.000000 -1.000000
vn -1.000000 0.000000 0.000000
vn -1.000000 0.000000 0.000000
vn -1.000000 0.000000 0.000000
vn -1.000000 0.000000 0.000000
vn 0.000000 -1.000000 -0.000005
vn 0.000000 -1.000000 -0.000005
vn 0.000000 -1.000000 -0.000005
vn 0.000000 -1.000000 -0.000005
vn -0.000002 -1.000000 0.000000
vn -0.000002 -1.000000 0.000000
vn -0.000002 -1.000000 0.000000
vn -0.000002 -1.000000 0.000000
vn 0.000000 -1.000000 0.000005
vn 0.000000 -1.000000 0.000005
vn 0.000000 -1.000000 0.000005
vn 0.000000 -1.000000 0.000005
vn 0.000002 -1.000000 0.000000
vn 0.000002 -1.000000 0.000000
vn 0.000002 -1.000000 0.000000
vn 0.000002 -1.000000 0.000000
vn 0.000000 0.000000 1.000000
vn 0.000000 0.000000 1.000000
vn 0.000000 0.000000 1.000000
vn 0.000000 0.000000 1.000000
vn 1.000000 0.000000 0.000000
vn 1.000000 0.000000 0.000000
vn 1.000000 0.000000 0.000000
vn 1.000000 0.000000 0.000000
vn 0.000000 0.000000 -1.000000
vn 0.000000 0.000000 -1.000000
vn 0.000000 0.000000 -1.000000
vn 0.000000 0.000000 -1.000000
vn -1.000000 0.000000 0.000000
vn -1.000000 0.000000 0.000000
vn -1.000000 0.000000 0.000000
vn -1.000000 0.000000 0.000000
vn 0.000000 1.000000 0.000001
vn 0.000000 1.000000 0.000001
vn 0.000000 1.000000 0.000001
vn 0.000000 1.000000 0.000001
vn 0.000000 1.000000 0.000000
vn 0.000000 1.000000 0.000000
vn 0.000000 1.000000 0.000000
vn 0.000000 1.000000 0.000000
vn 0.000000 1.000000 -0.000001
vn 0.000000 1.000000 -0.000001
vn 0.000000 1.000000 -0.000001
vn 0.000000 1.000000 -0.000001
vn 0.000000 1.000000 0.000000
vn 0.000000 1.000000 0.000000
vn 0.000000 1.000000 0.000000
vn 0.000000 1.000000 0.000000
vn 0.000000 0.000000 1.000000
vn 0.000000 0.000000 1.000000
vn 0.000000 0.000000 1.000000
vn 0.000000 0.000000 1.000000
vn 1.000000 0.000000 0.000000
vn 1.000000 0.000000 0.000000
vn 1.000000 0.000000 0.000000
vn 1.000000 0.000000 0.000000
vn 0.000000 0.000000 -1.000000
vn 0.000000 0.000000 -1.000000
vn 0.000000 0.000000 -1.000000
vn 0.000000 0.000000 -1.000000
vn -1.000000 0.000000 0.000000
vn -1.000000 0.000000 0.000000
vn -1.000000 0.000000 0.000000
vn -1.000000 0.000000 0.000000
vn 0.000000 -1.000000 0.000000
vn 0.000000 -1.000000 0.000000
vn 0.000000 -1.000000 0.000000
vn 0.000000 -1.000000 0.000000
vn 0.000000 -1.000000 0.000000
vn 0.000000 -1.000000 0.000000
vn 0.000000 -1.000000 0.000000
vn 0.000000 -1.000000 0.000000
vn 0.000000 -1.000000 -0.000000
vn 0.000000 -1.000000 -0.000000
vn 0.000000 -1.000000 -0.000000
vn 0.000000 -1.000000 -0.000000
vn 0.000000 -1.000000 0.000000
vn 0.000000 -1.000000 0.000000
vn 0.000000 -1.000000 0.000000
vn 0.000000 -1.000000 0.000000
vn 0.000000 0.000000 1.000000
vn 0.000000 0.000000 1.000000
vn 0.000000 0.000000 1.000000
vn 0.000000 0.000000 1.000000
vn -1.000000 0.000000 0.000000
vn -1.000000 0.000000 0.000000
vn -1.000000 0.000000 0.000000
vn -1.000000 0.000000 0.000000
vn 0.000000 0.000000 -1.000000
vn 0.000000 0.000000 -1.000000
vn 0.000000 0.000000 -1.000000
vn 0.000000 0.000000 -1.000000
vn 1.000000 0.000000 0.000000
vn 1.000000 0.000000 0.000000
vn 1.000000 0.000000 0.000000
vn 1.000000 0.000000 0.000000
s off
g grp_Radiator pCube3
usemtl initialShadingGroup
f 61/223/145 62/224/146 64/225/147 63/226/148
f 63/175/149 64/176/150 66/177/151 65/178/152
f 69/227/153 70/228/154 71/229/155 72/230/156
f 67/187/157 68/188/158 62/189/159 61/190/160
f 62/129/161 68/130/162 66/131/163 64/132/164
f 67/135/165 61/136/166 63/137/167 65/138/168
f 97/199/169 98/200/170 99/201/171 100/202/172
f 66/131/173 68/130/174 71/133/175 70/134/176
f 106/203/177 105/204/178 107/205/179 108/206/180
f 74/139/181 73/140/182 75/141/183 76/142/184
f 67/233/185 65/234/186 73/235/187 74/236/188
f 65/178/189 69/183/190 75/185/191 73/186/192
f 69/227/193 72/230/194 76/231/195 75/232/196
f 72/193/197 67/187/198 74/197/199 76/198/200
f 65/178/201 66/177/202 78/179/203 77/180/204
f 66/177/205 70/181/206 79/182/207 78/179/208
f 70/181/209 69/183/210 80/184/211 79/182/212
f 69/183/213 65/178/214 77/180/215 80/184/216
f 77/237/217 78/238/218 82/239/219 81/240/220
f 78/143/221 79/144/222 83/145/223 82/146/224
f 79/241/225 80/242/226 84/243/227 83/244/228
f 80/147/229 77/148/230 81/149/231 84/150/232
f 81/207/233 82/208/234 86/209/235 85/210/236
f 82/208/237 83/211/238 87/212/239 86/209/240
f 83/211/241 84/213/242 88/214/243 87/212/244
f 84/213/245 81/207/246 85/210/247 88/214/248
f 85/245/249 86/246/250 90/247/251 89/248/252
f 86/151/253 87/152/254 91/153/255 90/154/256
f 87/249/257 88/250/258 92/251/259 91/252/260
f 88/155/261 85/156/262 89/157/263 92/158/264
f 89/215/265 90/216/266 94/217/267 93/218/268
f 90/216/269 91/219/270 95/220/271 94/217/272
f 91/219/273 92/221/274 96/222/275 95/220/276
f 92/221/277 89/215/278 93/218/279 96/222/280
f 93/253/281 94/254/282 98/255/283 97/256/284
f 94/159/285 95/160/286 99/161/287 98/162/288
f 95/257/289 96/258/290 100/259/291 99/260/292
f 96/163/293 93/164/294 97/165/295 100/166/296
f 68/188/297 67/187/298 101/191/299 102/192/300
f 67/187/301 72/193/302 103/194/303 101/191/304
f 72/193/305 71/195/306 104/196/307 103/194/308
f 71/195/309 68/188/310 102/192/311 104/196/312
f 102/261/313 101/262/314 105/263/315 106/264/316
f 101/167/317 103/168/318 107/169/319 105/170/320
f 103/265/321 104/266/322 108/267/323 107/268/324
f 104/171/325 102/172/326 106/173/327 108/174/328
