# This file uses centimeters as units for non-parametric coordinates.

mtllib Rope_Loop_ENV.mtl
g default
v -0.557262 5.889607 0.571099
v 0.557262 5.889607 0.571099
v -0.557262 10.506127 0.571099
v 0.557262 10.506127 0.571099
v -0.557262 10.506127 -0.571099
v 0.557262 10.506127 -0.571099
v -0.557262 5.889607 -0.571099
v 0.557262 5.889607 -0.571099
v -0.250008 10.506127 0.250008
v 0.250008 10.506127 0.250008
v 0.250008 10.506127 -0.250008
v -0.250008 10.506127 -0.250008
v -0.250008 25.206669 0.250008
v 0.250008 25.206669 0.250008
v 0.250008 25.206669 -0.250008
v -0.250008 25.206669 -0.250008
v -0.311772 5.889607 -0.311772
v 0.311772 5.889607 -0.311772
v 0.311772 5.889607 0.311772
v -0.311772 5.889607 0.311772
v -0.311772 5.283010 -0.421535
v 0.311772 5.283010 -0.421535
v 0.311772 5.283010 0.421535
v -0.311772 5.283010 0.421535
v -0.311772 1.717384 -1.614144
v 0.311772 1.717384 -1.614144
v 0.311772 1.717384 1.614144
v -0.311772 1.717384 1.614144
v -0.311772 0.179340 -0.958224
v 0.311772 0.179340 -0.958224
v 0.311772 0.179340 0.958224
v -0.311772 0.179340 0.958224
v 0.311772 4.950604 -0.112136
v 0.311772 4.950604 0.112136
v 0.311772 1.729337 1.189566
v 0.311772 1.729337 -1.189566
v 0.311772 0.511746 0.670306
v 0.311772 0.511746 -0.670306
v -0.311772 4.950604 -0.112136
v -0.311772 4.950604 0.112136
v -0.311772 1.729337 -1.189566
v -0.311772 1.729337 1.189566
v -0.311772 0.511746 -0.670306
v -0.311772 0.511746 0.670306
v 0.311772 0.000000 0.000000
v 0.311772 0.383592 0.000000
v -0.311772 0.383592 0.000000
v -0.311772 0.000000 0.000000
vt 0.861654 0.318534
vt 0.939042 0.318534
vt 0.939042 0.631320
vt 0.861654 0.631320
vt 0.778493 0.318534
vt 0.855882 0.318534
vt 0.855882 0.631320
vt 0.778493 0.631320
vt 0.042401 0.001992
vt 0.076279 0.001992
vt 0.076279 0.998008
vt 0.042401 0.998008
vt 0.123089 0.001992
vt 0.156967 0.001992
vt 0.156967 0.998008
vt 0.123089 0.998008
vt 0.293920 0.401035
vt 0.251673 0.401035
vt 0.244236 0.359936
vt 0.301357 0.359936
vt 0.265199 0.337414
vt 0.280394 0.337414
vt 0.163432 0.118351
vt 0.192199 0.119161
vt 0.382161 0.118351
vt 0.353394 0.119161
vt 0.207873 0.014143
vt 0.227381 0.036665
vt 0.337720 0.014143
vt 0.318212 0.036665
vt 0.272796 0.001992
vt 0.272796 0.027982
vt 0.519478 0.401035
vt 0.477230 0.401035
vt 0.469793 0.359936
vt 0.526915 0.359936
vt 0.490756 0.337414
vt 0.505952 0.337414
vt 0.388990 0.118351
vt 0.417756 0.119161
vt 0.607718 0.118351
vt 0.578951 0.119161
vt 0.433431 0.014143
vt 0.452938 0.036665
vt 0.563277 0.014143
vt 0.543770 0.036665
vt 0.498354 0.001992
vt 0.498354 0.027982
vt 0.363222 0.404790
vt 0.397100 0.404790
vt 0.397100 0.438668
vt 0.363222 0.438668
vt 0.634433 0.457563
vt 0.676680 0.457563
vt 0.676680 0.522486
vt 0.634433 0.522486
vt 0.634433 0.392640
vt 0.676680 0.392640
vt 0.505127 0.404790
vt 0.580640 0.404790
vt 0.559822 0.426545
vt 0.525944 0.426545
vt 0.580640 0.482178
vt 0.559822 0.460423
vt 0.505127 0.482178
vt 0.525944 0.460423
vt 0.423841 0.404790
vt 0.499354 0.404790
vt 0.482721 0.422361
vt 0.440474 0.422361
vt 0.499354 0.482178
vt 0.482721 0.464608
vt 0.423841 0.482178
vt 0.440474 0.464608
vt 0.628660 0.404790
vt 0.628660 0.450206
vt 0.586413 0.450206
vt 0.586413 0.404790
vt 0.628660 0.495622
vt 0.586413 0.495622
vt 0.402873 0.404790
vt 0.418068 0.404790
vt 0.418068 0.447038
vt 0.402873 0.447038
vt 0.713573 0.001992
vt 0.789086 0.001992
vt 0.789086 0.314778
vt 0.713573 0.314778
vt 0.796094 0.001992
vt 0.871607 0.001992
vt 0.871607 0.314778
vt 0.796094 0.314778
vt 0.001874 0.001992
vt 0.035752 0.001992
vt 0.035752 0.998008
vt 0.001874 0.998008
vt 0.116623 0.998008
vt 0.082745 0.998008
vt 0.082745 0.001992
vt 0.116623 0.001992
vt 0.614547 0.001992
vt 0.656795 0.001992
vt 0.656795 0.043092
vt 0.614547 0.043092
vt 0.656795 0.284676
vt 0.614547 0.284676
vt 0.656795 0.388884
vt 0.614547 0.388884
vt 0.706307 0.388884
vt 0.664060 0.388884
vt 0.664060 0.347785
vt 0.706307 0.347785
vt 0.664060 0.106200
vt 0.706307 0.106200
vt 0.664060 0.001992
vt 0.706307 0.001992
vt 0.772720 0.318534
vt 0.772720 0.536787
vt 0.730473 0.536787
vt 0.730473 0.318534
vt 0.772720 0.619283
vt 0.730473 0.619283
vt 0.724700 0.392639
vt 0.724700 0.475136
vt 0.682453 0.475136
vt 0.682453 0.392639
vt 0.724700 0.693388
vt 0.682453 0.693388
vn 0.000000 0.000000 1.000000
vn 0.000000 0.000000 1.000000
vn 0.000000 0.000000 1.000000
vn 0.000000 0.000000 1.000000
vn 0.000000 1.000000 0.000000
vn 0.000000 1.000000 0.000000
vn 0.000000 1.000000 0.000000
vn 0.000000 1.000000 0.000000
vn 0.000000 0.000000 -1.000000
vn 0.000000 0.000000 -1.000000
vn 0.000000 0.000000 -1.000000
vn 0.000000 0.000000 -1.000000
vn 0.000000 -1.000000 0.000000
vn 0.000000 -1.000000 0.000000
vn 0.000000 -0.982933 0.183965
vn 0.000000 -0.982933 0.183965
vn 1.000000 0.000000 0.000000
vn 1.000000 0.000000 0.000000
vn 1.000000 0.000000 0.000000
vn 1.000000 0.000000 0.000000
vn -1.000000 0.000000 0.000000
vn -1.000000 0.000000 0.000000
vn -1.000000 0.000000 0.000000
vn -1.000000 0.000000 0.000000
vn 0.000000 1.000000 -0.000001
vn 0.000000 1.000000 -0.000001
vn 0.000000 1.000000 -0.000001
vn 0.000000 1.000000 -0.000001
vn 0.000000 1.000000 0.000000
vn 0.000000 1.000000 0.000000
vn 0.000000 1.000000 0.000000
vn 0.000000 1.000000 0.000000
vn 0.000000 1.000000 0.000001
vn 0.000000 1.000000 0.000001
vn 0.000000 1.000000 0.000001
vn 0.000000 1.000000 0.000001
vn 0.000000 1.000000 0.000000
vn 0.000000 1.000000 0.000000
vn 0.000000 1.000000 0.000000
vn 0.000000 1.000000 0.000000
vn 0.000000 0.000000 1.000000
vn 0.000000 0.000000 1.000000
vn 0.000000 0.000000 1.000000
vn 0.000000 0.000000 1.000000
vn 1.000000 0.000000 0.000000
vn 1.000000 0.000000 0.000000
vn 1.000000 0.000000 0.000000
vn 1.000000 0.000000 0.000000
vn 0.000000 0.000000 -1.000000
vn 0.000000 0.000000 -1.000000
vn 0.000000 0.000000 -1.000000
vn 0.000000 0.000000 -1.000000
vn -1.000000 0.000000 0.000000
vn -1.000000 0.000000 0.000000
vn -1.000000 0.000000 0.000000
vn -1.000000 0.000000 0.000000
vn 0.000000 -1.000000 0.000002
vn 0.000000 -1.000000 0.000002
vn 0.000000 -1.000000 0.000002
vn 0.000000 -1.000000 0.000002
vn 0.000000 -1.000000 0.000000
vn 0.000000 -1.000000 0.000000
vn 0.000000 -1.000000 0.000000
vn 0.000000 -1.000000 0.000000
vn 0.000000 -1.000000 -0.000002
vn 0.000000 -1.000000 -0.000002
vn 0.000000 -1.000000 -0.000002
vn 0.000000 -1.000000 -0.000002
vn 0.000000 -1.000000 0.000000
vn 0.000000 -1.000000 0.000000
vn 0.000000 -1.000000 0.000000
vn 0.000000 -1.000000 0.000000
vn 0.000000 0.178057 -0.984020
vn 0.000000 0.178057 -0.984020
vn 0.000000 0.178057 -0.984020
vn 0.000000 0.178057 -0.984020
vn 1.000000 -0.000000 0.000000
vn 1.000000 -0.000000 0.000000
vn 1.000000 -0.000000 0.000000
vn 1.000000 -0.000000 0.000000
vn 0.000000 0.178057 0.984020
vn 0.000000 0.178057 0.984020
vn 0.000000 0.178057 0.984020
vn 0.000000 0.178057 0.984020
vn -1.000000 -0.000000 0.000000
vn -1.000000 -0.000000 0.000000
vn -1.000000 -0.000000 0.000000
vn -1.000000 -0.000000 0.000000
vn 0.000000 0.317201 -0.948358
vn 0.000000 0.317201 -0.948358
vn 0.000000 0.317201 -0.948358
vn 0.000000 0.317201 -0.948358
vn 0.000000 0.317201 0.948358
vn 0.000000 0.317201 0.948358
vn 0.000000 0.317201 0.948358
vn 0.000000 0.317201 0.948358
vn 0.000000 -0.392281 -0.919845
vn 0.000000 -0.392281 -0.919845
vn 0.000000 -0.392281 -0.919845
vn 0.000000 -0.392281 -0.919845
vn 0.000000 -0.392281 0.919845
vn 0.000000 -0.392281 0.919845
vn 0.000000 -0.392281 0.919845
vn 0.000000 -0.392281 0.919845
vn 1.000000 0.000000 0.000000
vn 1.000000 0.000000 0.000000
vn 1.000000 -0.000000 0.000000
vn 1.000000 -0.000000 0.000000
vn 1.000000 -0.000000 0.000000
vn 1.000000 -0.000000 0.000000
vn 1.000000 -0.000000 0.000000
vn 1.000000 -0.000000 0.000000
vn 1.000000 -0.000000 0.000000
vn 1.000000 -0.000000 0.000000
vn 1.000000 -0.000000 0.000000
vn 1.000000 -0.000000 0.000000
vn -1.000000 0.000000 0.000000
vn -1.000000 0.000000 0.000000
vn -1.000000 -0.000000 0.000000
vn -1.000000 -0.000000 0.000000
vn -1.000000 -0.000000 0.000000
vn -1.000000 -0.000000 0.000000
vn -1.000000 -0.000000 0.000000
vn -1.000000 -0.000000 0.000000
vn -1.000000 -0.000000 0.000000
vn -1.000000 -0.000000 0.000000
vn -1.000000 -0.000000 0.000000
vn -1.000000 -0.000000 0.000000
vn 0.000000 -0.317201 -0.948358
vn 0.000000 -0.317201 -0.948358
vn 0.000000 -0.317201 -0.948358
vn 0.000000 -0.317201 -0.948358
vn 0.000000 0.392281 -0.919845
vn 0.000000 0.392281 -0.919845
vn 0.000000 0.392281 -0.919845
vn 0.000000 0.392281 -0.919845
vn 0.000000 0.982210 -0.187786
vn 0.000000 1.000000 0.000000
vn 0.000000 1.000000 0.000000
vn 0.000000 0.982210 -0.187786
vn 0.000000 0.392281 0.919845
vn 0.000000 0.392281 0.919845
vn 0.000000 0.392281 0.919845
vn 0.000000 0.392281 0.919845
vn 0.000000 -0.317201 0.948358
vn 0.000000 -0.317201 0.948358
vn 0.000000 -0.317201 0.948358
vn 0.000000 -0.317201 0.948358
vn 0.000000 -1.000000 0.000000
vn 0.000000 -1.000000 0.000000
vn 0.000000 -1.000000 0.000000
vn 0.000000 -1.000000 0.000000
vn 0.000000 0.982210 0.187786
vn 0.000000 0.982210 0.187786
vn 0.000000 -0.982933 -0.183965
vn 0.000000 -0.982933 -0.183965
s off
g pCube1
usemtl initialShadingGroup
f 1/85/1 2/86/2 4/87/3 3/88/4
f 13/49/5 14/50/6 15/51/7 16/52/8
f 5/89/9 6/90/10 8/91/11 7/92/12
s 1
f 48/53/13 45/54/14 31/55/15 32/56/16
s off
f 2/1/17 8/2/18 6/3/19 4/4/20
f 7/5/21 1/6/22 3/7/23 5/8/24
f 3/59/25 4/60/26 10/61/27 9/62/28
f 4/60/29 6/63/30 11/64/31 10/61/32
f 6/63/33 5/65/34 12/66/35 11/64/36
f 5/65/37 3/59/38 9/62/39 12/66/40
f 9/93/41 10/94/42 14/95/43 13/96/44
f 10/9/45 11/10/46 15/11/47 14/12/48
f 11/97/49 12/98/50 16/99/51 15/100/52
f 12/13/53 9/14/54 13/15/55 16/16/56
f 7/67/57 8/68/58 18/69/59 17/70/60
f 8/68/61 2/71/62 19/72/63 18/69/64
f 2/71/65 1/73/66 20/74/67 19/72/68
f 1/73/69 7/67/70 17/70/71 20/74/72
f 17/101/73 18/102/74 22/103/75 21/104/76
s 2
f 18/17/77 19/18/78 23/19/79 22/20/80
s off
f 19/109/81 20/110/82 24/111/83 23/112/84
s 3
f 20/33/85 17/34/86 21/35/87 24/36/88
s off
f 21/104/89 22/103/90 26/105/91 25/106/92
f 23/112/93 24/111/94 28/113/95 27/114/96
f 25/106/97 26/105/98 30/107/99 29/108/100
f 27/114/101 28/113/102 32/115/103 31/116/104
s 2
f 22/20/80 23/19/79 34/21/105 33/22/106
f 23/19/79 27/23/107 35/24/108 34/21/105
f 26/25/109 22/20/80 33/22/106 36/26/110
f 27/23/107 31/27/111 37/28/112 35/24/108
f 31/27/111 45/31/113 46/32/114 37/28/112
f 30/29/115 26/25/109 36/26/110 38/30/116
s 3
f 24/36/88 21/35/87 39/37/117 40/38/118
f 21/35/87 25/39/119 41/40/120 39/37/117
f 28/41/121 24/36/88 40/38/118 42/42/122
f 25/39/119 29/43/123 43/44/124 41/40/120
f 47/48/125 48/47/126 32/45/127 44/46/128
f 32/45/127 28/41/121 42/42/122 44/46/128
s off
f 34/117/129 35/118/130 42/119/131 40/120/132
f 35/118/133 37/121/134 44/122/135 42/119/136
s 4
f 37/75/137 46/76/138 47/77/139 44/78/140
s off
f 38/123/141 36/124/142 41/125/143 43/126/144
f 36/124/145 33/127/146 39/128/147 41/125/148
f 33/81/149 34/82/150 40/83/151 39/84/152
s 2
f 46/32/114 45/31/113 30/29/115 38/30/116
s 4
f 47/77/139 46/76/138 38/79/153 43/80/154
s 3
f 29/43/123 48/47/126 47/48/125 43/44/124
s 1
f 29/57/155 30/58/156 45/54/14 48/53/13
